<?xml version="1.0" encoding="utf-8"?>
<!-- Generator: Adobe Illustrator 16.0.0, SVG Export Plug-In . SVG Version: 6.00 Build 0)  -->
<!DOCTYPE svg PUBLIC "-//W3C//DTD SVG 1.1//EN" "http://www.w3.org/Graphics/SVG/1.1/DTD/svg11.dtd">
<svg version="1.1" id="Layer_1" xmlns="http://www.w3.org/2000/svg" xmlns:xlink="http://www.w3.org/1999/xlink" x="0px" y="0px"
	 width="119.79px" height="119.79px" viewBox="0 0 119.79 119.79" enable-background="new 0 0 119.79 119.79" xml:space="preserve">
<g>
	<linearGradient id="SVGID_1_" gradientUnits="userSpaceOnUse" x1="50.2471" y1="112.3276" x2="50.2471" y2="8.3955">
		<stop  offset="0" style="stop-color:#036132"/>
		<stop  offset="1" style="stop-color:#224094"/>
	</linearGradient>
	<path fill="url(#SVGID_1_)" d="M89.187,102.054h-7.612V71.501c0-0.93-0.756-1.691-1.688-1.691c-0.933,0-1.689,0.761-1.689,1.691
		v30.552h-13.33V84.006c0-3.467-1.346-6.721-3.785-9.175l-31.453-31.61c-0.924-0.919-1.43-2.141-1.43-3.446
		c0-1.304,0.506-2.524,1.43-3.447c0.586-0.59,1.318-1.021,2.116-1.243c0.899-0.256,1.423-1.187,1.169-2.083
		c-0.252-0.9-1.183-1.424-2.085-1.167c-1.353,0.381-2.597,1.11-3.592,2.106c-1.556,1.558-2.415,3.633-2.415,5.834
		c0,2.017,0.744,3.902,2.059,5.402h-13.89V9.571c0-0.935-0.753-1.689-1.686-1.689c-0.936,0-1.69,0.755-1.69,1.689v37.293
		c0,0.934,0.755,1.692,1.69,1.692h18.862l28.52,28.656c1.809,1.816,2.803,4.23,2.803,6.793v28.208c0,0.933,0.758,1.688,1.69,1.688
		c0.931,0,1.687-0.756,1.687-1.688v-6.781h24.319c0.934,0,1.692-0.758,1.692-1.69C90.879,102.814,90.12,102.054,89.187,102.054"/>
	<linearGradient id="SVGID_2_" gradientUnits="userSpaceOnUse" x1="104.2842" y1="112.3271" x2="104.2842" y2="8.3931">
		<stop  offset="0" style="stop-color:#036132"/>
		<stop  offset="1" style="stop-color:#224094"/>
	</linearGradient>
	<path fill="url(#SVGID_2_)" d="M109.72,96.971c-0.933,0-1.688,0.756-1.688,1.688v8.586c0,2.067-1.682,3.748-3.748,3.748
		c-2.067,0-3.747-1.681-3.747-3.748V76.003c0-0.928-0.756-1.684-1.688-1.684s-1.689,0.756-1.689,1.684v31.243
		c0,3.928,3.196,7.125,7.124,7.125c3.929,0,7.124-3.197,7.124-7.125V98.66C111.408,97.727,110.653,96.971,109.72,96.971"/>
	<linearGradient id="SVGID_3_" gradientUnits="userSpaceOnUse" x1="65.0156" y1="112.3271" x2="65.0156" y2="8.3956">
		<stop  offset="0" style="stop-color:#036132"/>
		<stop  offset="1" style="stop-color:#224094"/>
	</linearGradient>
	<path fill="url(#SVGID_3_)" d="M96.592,58.913h-8.809c-0.428,0-0.846,0.165-1.159,0.464c-3.652,3.456-9.812,3.458-13.47,0
		c-0.316-0.289-0.729-0.459-1.157-0.459l-3.189-0.005c-3.132,0-6.198-1.27-8.411-3.482L42.144,37.174V9.571
		c0-0.935-0.756-1.69-1.688-1.69H20.311c-0.933,0-1.688,0.756-1.688,1.69c0,0.93,0.755,1.688,1.688,1.688h18.456v35.605
		c0,0.934,0.753,1.692,1.688,1.692c0.933,0,1.688-0.758,1.688-1.692v-4.913L58.01,57.813c2.883,2.891,6.717,4.473,10.795,4.473
		l2.541,0.005c2.384,2.032,5.39,3.142,8.541,3.142c3.15,0,6.162-1.112,8.544-3.142l8.161-0.005c6.31,0,11.44,5.135,11.44,11.439
		v10.631c0,0.928,0.757,1.684,1.688,1.684c0.934,0,1.688-0.756,1.688-1.684V73.726C111.408,65.559,104.761,58.913,96.592,58.913"/>
	<linearGradient id="SVGID_4_" gradientUnits="userSpaceOnUse" x1="79.8877" y1="112.3262" x2="79.8877" y2="8.396">
		<stop  offset="0" style="stop-color:#036132"/>
		<stop  offset="1" style="stop-color:#224094"/>
	</linearGradient>
	<path fill="url(#SVGID_4_)" d="M79.887,56.751c7.917,0,14.354-7.069,14.354-15.76c0-8.693-6.437-15.762-14.354-15.762
		c-7.914,0-14.352,7.068-14.352,15.762C65.535,49.682,71.973,56.751,79.887,56.751 M69.406,37.307
		c2.939,2.426,6.426,3.111,9.3,3.111c3.062,0,5.411-0.727,5.616-0.79c0.887-0.281,1.375-1.229,1.096-2.117
		c-0.281-0.888-1.234-1.38-2.117-1.107c-0.082,0.029-7.828,2.364-12.496-2.358c1.976-3.281,5.308-5.437,9.082-5.437
		c6.055,0,10.976,5.551,10.976,12.383c0,6.825-4.921,12.384-10.976,12.384c-6.054,0-10.977-5.559-10.977-12.384
		C68.91,39.704,69.084,38.467,69.406,37.307"/>
</g>
<g display="none">
	<linearGradient id="SVGID_5_" gradientUnits="userSpaceOnUse" x1="23.6729" y1="115.9326" x2="23.6728" y2="6.2999">
		<stop  offset="0" style="stop-color:#036132"/>
		<stop  offset="1" style="stop-color:#224094"/>
	</linearGradient>
	<path display="inline" fill="url(#SVGID_5_)" d="M23.34,35.972c0.519,0,1.027-0.241,1.359-0.693c0.208-0.288,0.42-0.577,0.638-0.86
		c0.562-0.734,0.422-1.788-0.316-2.35c-0.737-0.562-1.788-0.425-2.349,0.313c-0.232,0.307-0.462,0.617-0.688,0.928
		c-0.545,0.748-0.378,1.797,0.369,2.34C22.654,35.868,22.998,35.972,23.34,35.972"/>
	<linearGradient id="SVGID_6_" gradientUnits="userSpaceOnUse" x1="29.7246" y1="115.9224" x2="29.7246" y2="6.3024">
		<stop  offset="0" style="stop-color:#036132"/>
		<stop  offset="1" style="stop-color:#224094"/>
	</linearGradient>
	<path display="inline" fill="url(#SVGID_6_)" d="M28.941,29.567c0.416,0,0.83-0.151,1.152-0.46
		c0.496-0.467,0.998-0.923,1.512-1.373c0.699-0.606,0.777-1.667,0.171-2.363c-0.608-0.695-1.667-0.776-2.366-0.168
		c-0.556,0.478-1.093,0.968-1.624,1.473c-0.672,0.635-0.698,1.697-0.059,2.369C28.053,29.392,28.497,29.567,28.941,29.567"/>
	<linearGradient id="SVGID_7_" gradientUnits="userSpaceOnUse" x1="37.3789" y1="115.9351" x2="37.3789" y2="6.3">
		<stop  offset="0" style="stop-color:#036132"/>
		<stop  offset="1" style="stop-color:#224094"/>
	</linearGradient>
	<path display="inline" fill="url(#SVGID_7_)" d="M36.47,23.771c0.3,0,0.604-0.081,0.876-0.248c0.58-0.358,1.168-0.702,1.768-1.035
		c0.806-0.455,1.095-1.474,0.641-2.284c-0.451-0.803-1.474-1.096-2.28-0.644c-0.64,0.355-1.266,0.722-1.886,1.106
		c-0.79,0.484-1.035,1.518-0.549,2.308C35.356,23.486,35.906,23.771,36.47,23.771"/>
	<linearGradient id="SVGID_8_" gradientUnits="userSpaceOnUse" x1="45.5625" y1="115.939" x2="45.5625" y2="6.2996">
		<stop  offset="0" style="stop-color:#036132"/>
		<stop  offset="1" style="stop-color:#224094"/>
	</linearGradient>
	<path display="inline" fill="url(#SVGID_8_)" d="M45.606,19.541c0.335-0.121,0.675-0.234,1.015-0.347
		c0.881-0.294,1.352-1.241,1.059-2.124c-0.288-0.88-1.238-1.344-2.121-1.059c-0.365,0.12-0.73,0.246-1.092,0.377
		c-0.872,0.318-1.322,1.276-1.012,2.148c0.252,0.682,0.895,1.107,1.581,1.107C45.225,19.645,45.416,19.608,45.606,19.541"/>
	<linearGradient id="SVGID_9_" gradientUnits="userSpaceOnUse" x1="30.7324" y1="115.9302" x2="30.7324" y2="6.2993">
		<stop  offset="0" style="stop-color:#036132"/>
		<stop  offset="1" style="stop-color:#224094"/>
	</linearGradient>
	<path display="inline" fill="url(#SVGID_9_)" d="M39.203,99.824c-5.814-3.212-10.918-7.776-14.76-13.208
		c-0.537-0.75-1.582-0.933-2.34-0.399c-0.756,0.534-0.934,1.583-0.398,2.337c4.135,5.84,9.625,10.751,15.88,14.2
		c0.255,0.145,0.533,0.212,0.808,0.212c0.59,0,1.162-0.31,1.468-0.868C40.307,101.291,40.014,100.268,39.203,99.824"/>
	<linearGradient id="SVGID_10_" gradientUnits="userSpaceOnUse" x1="86.3047" y1="115.9277" x2="86.3047" y2="6.3016">
		<stop  offset="0" style="stop-color:#036132"/>
		<stop  offset="1" style="stop-color:#224094"/>
	</linearGradient>
	<path display="inline" fill="url(#SVGID_10_)" d="M74.401,19.194c8.723,2.887,16.507,8.599,21.921,16.084
		c0.327,0.45,0.84,0.693,1.359,0.693c0.34,0,0.686-0.104,0.982-0.318c0.75-0.542,0.919-1.592,0.374-2.344
		c-5.821-8.048-14.198-14.191-23.583-17.3c-0.881-0.297-1.826,0.186-2.119,1.063C73.046,17.951,73.521,18.901,74.401,19.194"/>
	<linearGradient id="SVGID_11_" gradientUnits="userSpaceOnUse" x1="90.2861" y1="115.9292" x2="90.2861" y2="6.3067">
		<stop  offset="0" style="stop-color:#036132"/>
		<stop  offset="1" style="stop-color:#224094"/>
	</linearGradient>
	<path display="inline" fill="url(#SVGID_11_)" d="M96.577,86.617c-3.845,5.432-8.949,10-14.763,13.208
		c-0.811,0.444-1.104,1.467-0.657,2.274c0.307,0.559,0.878,0.868,1.47,0.868c0.273,0,0.551-0.067,0.81-0.212
		c6.251-3.444,11.743-8.36,15.878-14.2c0.537-0.753,0.358-1.803-0.398-2.337C98.159,85.682,97.113,85.861,96.577,86.617"/>
	<linearGradient id="SVGID_12_" gradientUnits="userSpaceOnUse" x1="60.5107" y1="115.9307" x2="60.5107" y2="6.2969">
		<stop  offset="0" style="stop-color:#036132"/>
		<stop  offset="1" style="stop-color:#224094"/>
	</linearGradient>
	<path display="inline" fill="url(#SVGID_12_)" d="M71.434,93.23c-0.717,0.583-0.82,1.644-0.236,2.359
		c1.344,1.648,2.053,3.648,2.053,5.773v11.756H47.771v-11.756c0-2.125,0.71-4.125,2.057-5.773c0.585-0.716,0.479-1.776-0.243-2.359
		c-0.712-0.581-1.766-0.484-2.355,0.242c-1.811,2.217-2.813,5.022-2.813,7.891v13.432c0,0.923,0.75,1.676,1.678,1.676h28.835
		c0.925,0,1.677-0.753,1.677-1.676v-13.432c0-2.868-0.997-5.674-2.811-7.891C73.211,92.747,72.154,92.649,71.434,93.23"/>
	<linearGradient id="SVGID_13_" gradientUnits="userSpaceOnUse" x1="60.5117" y1="115.9331" x2="60.5117" y2="6.2944">
		<stop  offset="0" style="stop-color:#036132"/>
		<stop  offset="1" style="stop-color:#224094"/>
	</linearGradient>
	<path display="inline" fill="url(#SVGID_13_)" d="M69.397,82.687c0-4.9-3.986-8.888-8.887-8.888c-4.899,0-8.886,3.988-8.886,8.888
		s3.986,8.886,8.886,8.886C65.411,91.572,69.397,87.587,69.397,82.687 M54.98,82.687c0-3.05,2.481-5.531,5.53-5.531
		c3.053,0,5.531,2.481,5.531,5.531c0,3.047-2.479,5.529-5.531,5.529C57.462,88.215,54.98,85.734,54.98,82.687"/>
	<linearGradient id="SVGID_14_" gradientUnits="userSpaceOnUse" x1="60.5107" y1="115.9316" x2="60.5107" y2="6.2997">
		<stop  offset="0" style="stop-color:#036132"/>
		<stop  offset="1" style="stop-color:#224094"/>
	</linearGradient>
	<path display="inline" fill="url(#SVGID_14_)" d="M71.434,25.212c-0.717,0.585-0.82,1.644-0.236,2.36
		c1.324,1.624,2.053,3.675,2.053,5.773v11.756H47.771V33.346c0-2.099,0.732-4.15,2.057-5.773c0.585-0.717,0.479-1.775-0.243-2.36
		c-0.712-0.586-1.766-0.482-2.355,0.24c-1.811,2.219-2.813,5.021-2.813,7.894v13.431c0,0.928,0.75,1.68,1.678,1.68h28.835
		c0.925,0,1.677-0.752,1.677-1.68V33.346c0-2.869-0.997-5.675-2.811-7.894C73.211,24.729,72.154,24.631,71.434,25.212"/>
	<linearGradient id="SVGID_15_" gradientUnits="userSpaceOnUse" x1="60.5117" y1="115.9312" x2="60.5117" y2="6.3006">
		<stop  offset="0" style="stop-color:#036132"/>
		<stop  offset="1" style="stop-color:#224094"/>
	</linearGradient>
	<path display="inline" fill="url(#SVGID_15_)" d="M60.511,23.555c4.9,0,8.887-3.986,8.887-8.887s-3.986-8.885-8.887-8.885
		c-4.899,0-8.886,3.985-8.886,8.885S55.611,23.555,60.511,23.555 M60.511,9.138c3.053,0,5.531,2.481,5.531,5.53
		c0,3.051-2.479,5.531-5.531,5.531c-3.049,0-5.53-2.48-5.53-5.531C54.98,11.619,57.462,9.138,60.511,9.138"/>
	<linearGradient id="SVGID_16_" gradientUnits="userSpaceOnUse" x1="21.2598" y1="115.9297" x2="21.2598" y2="6.301">
		<stop  offset="0" style="stop-color:#036132"/>
		<stop  offset="1" style="stop-color:#224094"/>
	</linearGradient>
	<path display="inline" fill="url(#SVGID_16_)" d="M37.354,80.786V67.354c0-2.873-0.997-5.676-2.812-7.896
		c-0.586-0.721-1.64-0.82-2.358-0.239c-0.718,0.586-0.826,1.641-0.241,2.361c1.347,1.648,2.059,3.644,2.059,5.773V79.11H8.52V67.354
		c0-2.13,0.715-4.125,2.057-5.773c0.586-0.72,0.482-1.775-0.238-2.361c-0.717-0.581-1.771-0.481-2.36,0.239
		c-1.811,2.219-2.811,5.022-2.811,7.896v13.432c0,0.928,0.749,1.679,1.68,1.679h28.83C36.604,82.465,37.354,81.714,37.354,80.786"/>
	<linearGradient id="SVGID_17_" gradientUnits="userSpaceOnUse" x1="21.2598" y1="115.9351" x2="21.2598" y2="6.2985">
		<stop  offset="0" style="stop-color:#036132"/>
		<stop  offset="1" style="stop-color:#224094"/>
	</linearGradient>
	<path display="inline" fill="url(#SVGID_17_)" d="M21.262,57.564c4.898,0,8.884-3.988,8.884-8.887s-3.985-8.886-8.884-8.886
		c-4.9,0-8.889,3.986-8.889,8.886S16.361,57.564,21.262,57.564 M21.262,43.146c3.047,0,5.528,2.481,5.528,5.53
		c0,3.05-2.481,5.53-5.528,5.53c-3.052,0-5.533-2.48-5.533-5.53C15.729,45.628,18.21,43.146,21.262,43.146"/>
	<linearGradient id="SVGID_18_" gradientUnits="userSpaceOnUse" x1="99.7617" y1="115.9297" x2="99.7617" y2="6.301">
		<stop  offset="0" style="stop-color:#036132"/>
		<stop  offset="1" style="stop-color:#224094"/>
	</linearGradient>
	<path display="inline" fill="url(#SVGID_18_)" d="M113.045,59.459c-0.587-0.721-1.644-0.82-2.36-0.239
		c-0.716,0.586-0.824,1.641-0.238,2.361c1.345,1.648,2.054,3.644,2.054,5.773V79.11H87.021V67.354c0-2.13,0.71-4.125,2.054-5.773
		c0.585-0.72,0.48-1.775-0.237-2.361c-0.718-0.581-1.773-0.481-2.358,0.239c-1.813,2.219-2.811,5.027-2.811,7.896v13.432
		c0,0.928,0.749,1.679,1.675,1.679h28.835c0.925,0,1.677-0.751,1.677-1.679V67.354C115.855,64.486,114.857,61.678,113.045,59.459"/>
	<linearGradient id="SVGID_19_" gradientUnits="userSpaceOnUse" x1="99.7617" y1="115.9351" x2="99.7617" y2="6.2985">
		<stop  offset="0" style="stop-color:#036132"/>
		<stop  offset="1" style="stop-color:#224094"/>
	</linearGradient>
	<path display="inline" fill="url(#SVGID_19_)" d="M90.877,48.677c0,4.899,3.984,8.887,8.883,8.887c4.9,0,8.887-3.988,8.887-8.887
		s-3.986-8.886-8.887-8.886C94.861,39.791,90.877,43.777,90.877,48.677 M99.76,43.146c3.053,0,5.534,2.481,5.534,5.53
		c0,3.05-2.481,5.53-5.534,5.53c-3.049,0-5.529-2.48-5.529-5.53C94.23,45.628,96.711,43.146,99.76,43.146"/>
</g>
<g display="none">
	<linearGradient id="SVGID_20_" gradientUnits="userSpaceOnUse" x1="58.2139" y1="106.2681" x2="58.2139" y2="16.4092">
		<stop  offset="0" style="stop-color:#036132"/>
		<stop  offset="1" style="stop-color:#224094"/>
	</linearGradient>
	<polygon display="inline" fill="url(#SVGID_20_)" points="64.327,67.35 49.724,81.953 52.1,84.33 66.704,69.726 	"/>
	<linearGradient id="SVGID_21_" gradientUnits="userSpaceOnUse" x1="53.3506" y1="106.2666" x2="53.3506" y2="16.4081">
		<stop  offset="0" style="stop-color:#036132"/>
		<stop  offset="1" style="stop-color:#224094"/>
	</linearGradient>
	<circle display="inline" fill="url(#SVGID_21_)" cx="53.351" cy="70.976" r="2.567"/>
	<linearGradient id="SVGID_22_" gradientUnits="userSpaceOnUse" x1="63.0781" y1="106.2734" x2="63.0781" y2="16.3931">
		<stop  offset="0" style="stop-color:#036132"/>
		<stop  offset="1" style="stop-color:#224094"/>
	</linearGradient>
	<circle display="inline" fill="url(#SVGID_22_)" cx="63.078" cy="80.701" r="2.567"/>
	<linearGradient id="SVGID_23_" gradientUnits="userSpaceOnUse" x1="60.5117" y1="106.2681" x2="60.5117" y2="16.4074">
		<stop  offset="0" style="stop-color:#036132"/>
		<stop  offset="1" style="stop-color:#224094"/>
	</linearGradient>
	<path display="inline" fill="url(#SVGID_23_)" d="M96.465,39.082l-0.953-1.384l-2.768,1.906l0.952,1.384
		c4.634,6.728,7.081,14.622,7.081,22.827c0,22.208-18.061,40.273-40.26,40.273c-22.207,0-40.273-18.065-40.273-40.273
		c0-19.397,13.816-36.05,32.854-39.594l1.652-0.308l-0.614-3.304l-1.652,0.307c-20.629,3.84-35.602,21.881-35.602,42.898
		c0,24.061,19.574,43.635,43.635,43.635c24.053,0,43.622-19.574,43.622-43.635C104.14,54.926,101.484,46.374,96.465,39.082z"/>
	<linearGradient id="SVGID_24_" gradientUnits="userSpaceOnUse" x1="77.8799" y1="106.2671" x2="77.8799" y2="16.4067">
		<stop  offset="0" style="stop-color:#036132"/>
		<stop  offset="1" style="stop-color:#224094"/>
	</linearGradient>
	<path display="inline" fill="url(#SVGID_24_)" d="M93.547,27.577c-8.254-8.237-19.207-12.774-30.843-12.774h-1.681v47.693
		l33.713-33.731L93.547,27.577z M64.385,54.379v-8.619l15.859-15.86l-2.376-2.376L64.385,41.007V32.57l0.005,0.005l6.809-6.808
		l-2.377-2.376l-4.437,4.436v-9.629c9.553,0.39,18.523,4.106,25.573,10.594L64.385,54.379z"/>
	<linearGradient id="SVGID_25_" gradientUnits="userSpaceOnUse" x1="41.8613" y1="106.2671" x2="41.8613" y2="16.4076">
		<stop  offset="0" style="stop-color:#036132"/>
		<stop  offset="1" style="stop-color:#224094"/>
	</linearGradient>
	<path display="inline" fill="url(#SVGID_25_)" d="M50.783,33.769l-0.388-1.635c-0.531,0.126-13.076,3.24-17.849,16.826l3.171,1.114
		c4.148-11.809,14.997-14.559,15.457-14.67L50.783,33.769z"/>
</g>
</svg>
